<svg xmlns="http://www.w3.org/2000/svg" viewBox="0 0 352.52 280.21"><defs><style>.cls-1{fill:#111;}</style></defs><title>アセット 1</title><g id="レイヤー_2" data-name="レイヤー 2"><g id="layer1"><polygon id="polygon1" class="cls-1" points="178.07 9.21 86.59 88.35 0 88.35 0 190.18 85.28 190.18 178.07 270.45 178.07 9.21"/><path class="cls-1" d="M224.67,207.78a10.5,10.5,0,0,1-8.9-16.05,96.61,96.61,0,0,0-.41-103.24A10.5,10.5,0,1,1,233.1,77.23a117.61,117.61,0,0,1,.5,125.59A10.5,10.5,0,0,1,224.67,207.78Z"/><path class="cls-1" d="M262.27,245.35a10.5,10.5,0,0,1-8.46-16.71,149.34,149.34,0,0,0-.48-177.08,10.5,10.5,0,1,1,16.87-12.5,170.34,170.34,0,0,1,.54,202A10.49,10.49,0,0,1,262.27,245.35Z"/><path class="cls-1" d="M297.11,280.21a10.5,10.5,0,0,1-8.23-17A198,198,0,0,0,288.37,17,10.5,10.5,0,1,1,304.79,4a216.92,216.92,0,0,1,47.72,136.51,216.9,216.9,0,0,1-47.16,135.75A10.48,10.48,0,0,1,297.11,280.21Z"/></g></g></svg>